<svg width="6" height="12" viewBox="0 0 6 12" fill="none" xmlns="http://www.w3.org/2000/svg">
<path d="M0.585633 11.1429C0.71215 11.1434 0.835198 11.0885 0.935146 10.9869L5.7695 6.18139C5.84117 6.10981 5.89925 6.01751 5.93923 5.91171C5.97921 5.80591 6 5.68945 6 5.5714C6 5.45335 5.97921 5.33689 5.93923 5.23109C5.89925 5.12529 5.84117 5.03305 5.7695 4.96146L0.935148 0.155872C0.8352 0.0542659 0.712152 -0.000583776 0.585635 4.79117e-06C0.508817 -0.000320858 0.432708 0.0192379 0.361666 0.0575184C0.290624 0.0957989 0.22605 0.152016 0.171643 0.223051C0.117237 0.294086 0.0740773 0.378541 0.044623 0.471472C0.0151687 0.564403 -5.17624e-07 0.664037 -1.32832e-07 0.764658L-1.80294e-06 10.3782C-2.22269e-06 10.4788 0.015167 10.5785 0.0446213 10.6714C0.0740755 10.7643 0.117235 10.8487 0.171641 10.9197C0.226048 10.9908 0.290622 11.0471 0.361664 11.0853C0.432706 11.1236 0.508815 11.1432 0.585633 11.1429Z" fill="#E2F163"/>
</svg>
