<svg width="31" height="32" viewBox="0 0 31 32" fill="none" xmlns="http://www.w3.org/2000/svg">
<path d="M16.8188 18.8271C16.818 17.795 17.0186 16.7728 17.409 15.8191C17.7995 14.8653 18.3721 13.9988 19.0942 13.269C19.8164 12.5391 20.6739 11.9603 21.6176 11.5657C22.5612 11.1711 23.5726 10.9685 24.5938 10.9693C25.061 10.9716 25.5271 11.0159 25.9865 11.1019C25.7957 10.7871 25.5872 10.4836 25.362 10.193C23.3011 7.66837 19.6978 5.72447 16.8126 8.17964C16.5552 8.41135 16.3112 8.65793 16.082 8.91811C15.4386 9.75284 14.8917 10.6591 14.452 11.6194C14.3991 11.7317 14.3249 11.8324 14.2335 11.9158C14.1421 11.9991 14.0354 12.0634 13.9194 12.1051C13.8034 12.1467 13.6804 12.1647 13.5574 12.1583C13.4345 12.1518 13.3141 12.1211 13.203 12.0675C13.0918 12.0141 12.9922 11.9391 12.9098 11.8467C12.8273 11.7544 12.7636 11.6465 12.7224 11.5292C12.6812 11.412 12.6634 11.2877 12.6698 11.1635C12.6762 11.0393 12.7066 10.9175 12.7596 10.8052C12.8158 10.6853 12.872 10.578 12.9345 10.4644C11.3656 10.4161 9.81157 10.1419 8.31933 9.65018C7.19631 9.26878 6.14183 8.70608 5.19683 7.98394C4.2443 8.56912 3.39916 9.31649 2.69883 10.193C0.0384552 13.4876 0.0322225 17.6216 1.3062 21.5536V21.642C2.60516 25.5741 5.32181 30.7748 9.64959 31.854C10.373 32.0213 11.1244 32.0213 11.8478 31.854C12.6784 31.6773 13.3466 31.0588 14.2521 31.1661C14.9203 31.2418 15.5011 31.6836 16.1256 31.8603C16.8552 32.0466 17.6192 32.0466 18.3488 31.8603C20.9218 31.2292 22.9201 29.1211 24.4002 26.6975C22.3687 26.6496 20.4367 25.7985 19.0192 24.327C17.6017 22.8555 16.8117 20.8808 16.8188 18.8271Z" fill="#B3A0FF"/>
<path d="M7.72604 7.32763C9.42901 8.13663 11.2838 8.56707 13.1654 8.58992C13.0548 7.96904 12.8855 7.36034 12.6597 6.77221C11.8833 4.69014 10.4299 2.93646 8.53792 1.79876C6.85211 0.814095 4.9792 0.201093 3.04229 0C3.12477 1.00889 3.3542 1.9999 3.72305 2.9411C4.46536 4.8592 5.89424 6.42506 7.72604 7.32763Z" fill="#B3A0FF"/>
<path d="M28.7904 23.0243C29.3391 22.4712 29.7743 21.814 30.0711 21.0905C30.368 20.367 30.5206 19.5914 30.5203 18.8082C30.5211 18.024 30.3688 17.2473 30.0719 16.5228C29.7751 15.7982 29.3395 15.14 28.7904 14.5859C28.243 14.0319 27.5926 13.5928 26.8767 13.2939C26.1607 12.9949 25.3934 12.842 24.6188 12.8439C23.8432 12.8419 23.0749 12.9947 22.3579 13.2937C21.6409 13.5926 20.9895 14.0318 20.4409 14.5859C19.8859 15.1404 19.4455 15.801 19.1453 16.5291C18.8451 17.2572 18.6911 18.0384 18.6923 18.8272C18.6912 19.6099 18.8428 20.3852 19.1386 21.1087C19.4343 21.8321 19.8684 22.4896 20.4159 23.0433C20.9642 23.5982 21.6155 24.0383 22.3324 24.3383C23.0494 24.6383 23.8178 24.7923 24.5938 24.7915C25.3743 24.793 26.1473 24.6375 26.8678 24.3341C27.5883 24.0307 28.2419 23.5855 28.7904 23.0243ZM24.2753 21.295C24.1094 21.478 23.879 21.5878 23.6337 21.6008C23.3884 21.6138 23.1479 21.5289 22.9639 21.3644L21.4275 20.0011C21.2415 19.8347 21.128 19.6008 21.1116 19.3502C21.0953 19.0997 21.1774 18.8527 21.3402 18.663C21.5048 18.475 21.7363 18.3603 21.9842 18.3438C22.2321 18.3272 22.4765 18.4102 22.6642 18.5747L23.5134 19.3321L26.5797 15.9617C26.6624 15.8703 26.7621 15.7963 26.8732 15.744C26.9842 15.6916 27.1045 15.6619 27.2269 15.6566C27.3493 15.6513 27.4716 15.6706 27.5867 15.7132C27.7018 15.7558 27.8074 15.821 27.8974 15.9049C27.9881 15.989 28.0614 16.0904 28.1133 16.2032C28.1652 16.3159 28.1946 16.4379 28.1998 16.5622C28.205 16.6865 28.1861 16.8105 28.1438 16.9273C28.1016 17.0441 28.037 17.1514 27.9537 17.243L24.2753 21.295Z" fill="#B3A0FF"/>
</svg>
